<mxfile host="app.diagrams.net" agent="Mozilla/5.0 (Windows NT 10.0; Win64; x64) AppleWebKit/537.36 (KHTML, like Gecko) Chrome/131.0.0.0 Safari/537.36" version="26.0.4">
  <diagram name="Page-1" id="8ce9d11a-91a2-4d17-14d8-a56ed91bf033">
    <mxGraphModel dx="1434" dy="738" grid="1" gridSize="10" guides="1" tooltips="1" connect="1" arrows="1" fold="1" page="1" pageScale="1" pageWidth="1600" pageHeight="1700" background="none" math="0" shadow="0">
      <root>
        <mxCell id="0" />
        <mxCell id="1" parent="0" />
        <mxCell id="ZAqXfM63JVo944MXXf1k-1" value="&lt;font style=&quot;font-size: 16px;&quot;&gt;&lt;b&gt;Input &quot;B&quot; Key Down&lt;/b&gt;&lt;/font&gt;" style="triangle;whiteSpace=wrap;html=1;" vertex="1" parent="1">
          <mxGeometry x="60" y="50" width="140" height="110" as="geometry" />
        </mxCell>
        <mxCell id="ZAqXfM63JVo944MXXf1k-6" value="Windows Controller" style="swimlane;whiteSpace=wrap;html=1;" vertex="1" parent="1">
          <mxGeometry x="260" y="40" width="290" height="1030" as="geometry" />
        </mxCell>
        <mxCell id="ZAqXfM63JVo944MXXf1k-31" value="Update Function" style="rounded=0;whiteSpace=wrap;html=1;" vertex="1" parent="ZAqXfM63JVo944MXXf1k-6">
          <mxGeometry x="85" y="40" width="120" height="55" as="geometry" />
        </mxCell>
        <mxCell id="ZAqXfM63JVo944MXXf1k-32" value="Check response" style="rhombus;whiteSpace=wrap;html=1;" vertex="1" parent="ZAqXfM63JVo944MXXf1k-6">
          <mxGeometry x="105" y="110" width="80" height="80" as="geometry" />
        </mxCell>
        <mxCell id="ZAqXfM63JVo944MXXf1k-34" value="Stop" style="rounded=0;whiteSpace=wrap;html=1;" vertex="1" parent="ZAqXfM63JVo944MXXf1k-6">
          <mxGeometry x="25" y="200" width="80" height="40" as="geometry" />
        </mxCell>
        <mxCell id="ZAqXfM63JVo944MXXf1k-35" value="" style="endArrow=classic;html=1;rounded=0;exitX=0;exitY=0.5;exitDx=0;exitDy=0;entryX=1;entryY=0;entryDx=0;entryDy=0;" edge="1" parent="ZAqXfM63JVo944MXXf1k-6" source="ZAqXfM63JVo944MXXf1k-32" target="ZAqXfM63JVo944MXXf1k-34">
          <mxGeometry relative="1" as="geometry">
            <mxPoint x="150" y="250" as="sourcePoint" />
            <mxPoint x="250" y="250" as="targetPoint" />
          </mxGeometry>
        </mxCell>
        <mxCell id="ZAqXfM63JVo944MXXf1k-36" value="false" style="edgeLabel;resizable=0;html=1;;align=center;verticalAlign=middle;" connectable="0" vertex="1" parent="ZAqXfM63JVo944MXXf1k-35">
          <mxGeometry relative="1" as="geometry" />
        </mxCell>
        <mxCell id="ZAqXfM63JVo944MXXf1k-43" value="" style="endArrow=classic;html=1;rounded=0;exitX=1;exitY=0.5;exitDx=0;exitDy=0;" edge="1" parent="ZAqXfM63JVo944MXXf1k-6" source="ZAqXfM63JVo944MXXf1k-32">
          <mxGeometry relative="1" as="geometry">
            <mxPoint x="150" y="350" as="sourcePoint" />
            <mxPoint x="260" y="220" as="targetPoint" />
          </mxGeometry>
        </mxCell>
        <mxCell id="ZAqXfM63JVo944MXXf1k-44" value="true" style="edgeLabel;resizable=0;html=1;;align=center;verticalAlign=middle;" connectable="0" vertex="1" parent="ZAqXfM63JVo944MXXf1k-43">
          <mxGeometry relative="1" as="geometry" />
        </mxCell>
        <mxCell id="ZAqXfM63JVo944MXXf1k-53" value="Update Function" style="rounded=0;whiteSpace=wrap;html=1;" vertex="1" parent="ZAqXfM63JVo944MXXf1k-6">
          <mxGeometry x="85" y="285" width="120" height="60" as="geometry" />
        </mxCell>
        <mxCell id="ZAqXfM63JVo944MXXf1k-56" value="Check response" style="rhombus;whiteSpace=wrap;html=1;" vertex="1" parent="ZAqXfM63JVo944MXXf1k-6">
          <mxGeometry x="105" y="380" width="80" height="80" as="geometry" />
        </mxCell>
        <mxCell id="ZAqXfM63JVo944MXXf1k-57" value="Default Path" style="rounded=0;whiteSpace=wrap;html=1;" vertex="1" parent="ZAqXfM63JVo944MXXf1k-6">
          <mxGeometry x="25" y="460" width="80" height="40" as="geometry" />
        </mxCell>
        <mxCell id="ZAqXfM63JVo944MXXf1k-58" value="" style="endArrow=classic;html=1;rounded=0;exitX=0;exitY=0.5;exitDx=0;exitDy=0;entryX=1;entryY=0;entryDx=0;entryDy=0;" edge="1" parent="ZAqXfM63JVo944MXXf1k-6" source="ZAqXfM63JVo944MXXf1k-56" target="ZAqXfM63JVo944MXXf1k-57">
          <mxGeometry relative="1" as="geometry">
            <mxPoint x="150" y="490" as="sourcePoint" />
            <mxPoint x="250" y="490" as="targetPoint" />
          </mxGeometry>
        </mxCell>
        <mxCell id="ZAqXfM63JVo944MXXf1k-59" value="false" style="edgeLabel;resizable=0;html=1;;align=center;verticalAlign=middle;" connectable="0" vertex="1" parent="ZAqXfM63JVo944MXXf1k-58">
          <mxGeometry relative="1" as="geometry" />
        </mxCell>
        <mxCell id="ZAqXfM63JVo944MXXf1k-71" value="Check response" style="rhombus;whiteSpace=wrap;html=1;" vertex="1" parent="ZAqXfM63JVo944MXXf1k-6">
          <mxGeometry x="160" y="460" width="80" height="80" as="geometry" />
        </mxCell>
        <mxCell id="ZAqXfM63JVo944MXXf1k-74" value="Nothing" style="rounded=0;whiteSpace=wrap;html=1;" vertex="1" parent="ZAqXfM63JVo944MXXf1k-6">
          <mxGeometry x="20" y="530" width="120" height="40" as="geometry" />
        </mxCell>
        <mxCell id="ZAqXfM63JVo944MXXf1k-75" value="" style="endArrow=classic;html=1;rounded=0;exitX=0;exitY=0.5;exitDx=0;exitDy=0;entryX=0.5;entryY=0;entryDx=0;entryDy=0;" edge="1" parent="ZAqXfM63JVo944MXXf1k-6" source="ZAqXfM63JVo944MXXf1k-71" target="ZAqXfM63JVo944MXXf1k-74">
          <mxGeometry relative="1" as="geometry">
            <mxPoint x="210" y="380" as="sourcePoint" />
            <mxPoint x="310" y="380" as="targetPoint" />
          </mxGeometry>
        </mxCell>
        <mxCell id="ZAqXfM63JVo944MXXf1k-76" value="true" style="edgeLabel;resizable=0;html=1;;align=center;verticalAlign=middle;" connectable="0" vertex="1" parent="ZAqXfM63JVo944MXXf1k-75">
          <mxGeometry relative="1" as="geometry" />
        </mxCell>
        <mxCell id="ZAqXfM63JVo944MXXf1k-84" value="Update Function" style="rounded=0;whiteSpace=wrap;html=1;" vertex="1" parent="ZAqXfM63JVo944MXXf1k-6">
          <mxGeometry x="85" y="775" width="120" height="60" as="geometry" />
        </mxCell>
        <mxCell id="ZAqXfM63JVo944MXXf1k-86" value="Check response" style="rhombus;whiteSpace=wrap;html=1;" vertex="1" parent="ZAqXfM63JVo944MXXf1k-6">
          <mxGeometry x="100" y="870" width="80" height="80" as="geometry" />
        </mxCell>
        <mxCell id="ZAqXfM63JVo944MXXf1k-87" value="Default Path" style="rounded=0;whiteSpace=wrap;html=1;" vertex="1" parent="ZAqXfM63JVo944MXXf1k-6">
          <mxGeometry x="20" y="950" width="80" height="40" as="geometry" />
        </mxCell>
        <mxCell id="ZAqXfM63JVo944MXXf1k-88" value="" style="endArrow=classic;html=1;rounded=0;entryX=1;entryY=0;entryDx=0;entryDy=0;exitX=0;exitY=0.5;exitDx=0;exitDy=0;" edge="1" parent="ZAqXfM63JVo944MXXf1k-6" source="ZAqXfM63JVo944MXXf1k-86" target="ZAqXfM63JVo944MXXf1k-87">
          <mxGeometry relative="1" as="geometry">
            <mxPoint x="90" y="850" as="sourcePoint" />
            <mxPoint x="115" y="540" as="targetPoint" />
          </mxGeometry>
        </mxCell>
        <mxCell id="ZAqXfM63JVo944MXXf1k-89" value="false" style="edgeLabel;resizable=0;html=1;;align=center;verticalAlign=middle;" connectable="0" vertex="1" parent="ZAqXfM63JVo944MXXf1k-88">
          <mxGeometry relative="1" as="geometry" />
        </mxCell>
        <mxCell id="ZAqXfM63JVo944MXXf1k-85" style="edgeStyle=orthogonalEdgeStyle;rounded=0;orthogonalLoop=1;jettySize=auto;html=1;exitX=1;exitY=0.5;exitDx=0;exitDy=0;entryX=0;entryY=0.5;entryDx=0;entryDy=0;" edge="1" parent="ZAqXfM63JVo944MXXf1k-6" source="ZAqXfM63JVo944MXXf1k-82" target="ZAqXfM63JVo944MXXf1k-84">
          <mxGeometry relative="1" as="geometry" />
        </mxCell>
        <mxCell id="ZAqXfM63JVo944MXXf1k-82" value="&lt;span style=&quot;font-size: 16px;&quot;&gt;&lt;b&gt;Any button down&lt;/b&gt;&lt;/span&gt;" style="triangle;whiteSpace=wrap;html=1;" vertex="1" parent="ZAqXfM63JVo944MXXf1k-6">
          <mxGeometry x="-200" y="750" width="140" height="110" as="geometry" />
        </mxCell>
        <mxCell id="ZAqXfM63JVo944MXXf1k-9" value="Unit Controller" style="swimlane;whiteSpace=wrap;html=1;" vertex="1" parent="1">
          <mxGeometry x="670" y="40" width="360" height="510" as="geometry" />
        </mxCell>
        <mxCell id="ZAqXfM63JVo944MXXf1k-11" value="&lt;font style=&quot;font-size: 16px;&quot;&gt;bool CheckBuilderSelected()&lt;/font&gt;" style="rounded=0;whiteSpace=wrap;html=1;" vertex="1" parent="ZAqXfM63JVo944MXXf1k-9">
          <mxGeometry x="40" y="35" width="290" height="60" as="geometry" />
        </mxCell>
        <mxCell id="ZAqXfM63JVo944MXXf1k-67" value="&lt;font style=&quot;font-size: 16px;&quot;&gt;bool SelectAndCheckBuilderIsSame(...)&lt;/font&gt;" style="rounded=0;whiteSpace=wrap;html=1;" vertex="1" parent="ZAqXfM63JVo944MXXf1k-9">
          <mxGeometry x="40" y="390" width="290" height="60" as="geometry" />
        </mxCell>
        <mxCell id="ZAqXfM63JVo944MXXf1k-18" value="" style="endArrow=classic;html=1;rounded=0;entryX=0;entryY=0.5;entryDx=0;entryDy=0;exitX=1;exitY=0.5;exitDx=0;exitDy=0;" edge="1" parent="1" source="ZAqXfM63JVo944MXXf1k-31" target="ZAqXfM63JVo944MXXf1k-11">
          <mxGeometry width="50" height="50" relative="1" as="geometry">
            <mxPoint x="510" y="110" as="sourcePoint" />
            <mxPoint x="490" y="270" as="targetPoint" />
          </mxGeometry>
        </mxCell>
        <mxCell id="ZAqXfM63JVo944MXXf1k-38" value="Building Controller" style="swimlane;whiteSpace=wrap;html=1;" vertex="1" parent="1">
          <mxGeometry x="1060" y="570" width="360" height="810" as="geometry" />
        </mxCell>
        <mxCell id="ZAqXfM63JVo944MXXf1k-39" value="Set Building Menu Mod = true" style="rounded=0;whiteSpace=wrap;html=1;" vertex="1" parent="ZAqXfM63JVo944MXXf1k-38">
          <mxGeometry x="40" y="40" width="290" height="60" as="geometry" />
        </mxCell>
        <mxCell id="ZAqXfM63JVo944MXXf1k-50" value="Get Building Menu Mod value" style="rounded=0;whiteSpace=wrap;html=1;" vertex="1" parent="ZAqXfM63JVo944MXXf1k-38">
          <mxGeometry x="40" y="110" width="290" height="60" as="geometry" />
        </mxCell>
        <mxCell id="ZAqXfM63JVo944MXXf1k-80" value="Set Building Menu Mod = false" style="rounded=0;whiteSpace=wrap;html=1;" vertex="1" parent="ZAqXfM63JVo944MXXf1k-38">
          <mxGeometry x="40" y="180" width="290" height="60" as="geometry" />
        </mxCell>
        <mxCell id="ZAqXfM63JVo944MXXf1k-91" value="Get Building Menu Mod value" style="rounded=0;whiteSpace=wrap;html=1;" vertex="1" parent="ZAqXfM63JVo944MXXf1k-38">
          <mxGeometry x="40" y="260" width="290" height="60" as="geometry" />
        </mxCell>
        <mxCell id="ZAqXfM63JVo944MXXf1k-40" value="" style="endArrow=classic;html=1;rounded=0;exitX=1;exitY=0.5;exitDx=0;exitDy=0;entryX=0;entryY=0.5;entryDx=0;entryDy=0;" edge="1" parent="1" target="ZAqXfM63JVo944MXXf1k-39">
          <mxGeometry width="50" height="50" relative="1" as="geometry">
            <mxPoint x="515" y="260" as="sourcePoint" />
            <mxPoint x="490" y="420" as="targetPoint" />
            <Array as="points">
              <mxPoint x="660" y="260" />
              <mxPoint x="660" y="640" />
            </Array>
          </mxGeometry>
        </mxCell>
        <mxCell id="ZAqXfM63JVo944MXXf1k-4" value="" style="endArrow=classic;html=1;rounded=0;exitX=1;exitY=0.5;exitDx=0;exitDy=0;entryX=0;entryY=0.5;entryDx=0;entryDy=0;" edge="1" parent="1" source="ZAqXfM63JVo944MXXf1k-1" target="ZAqXfM63JVo944MXXf1k-31">
          <mxGeometry width="50" height="50" relative="1" as="geometry">
            <mxPoint x="440" y="320" as="sourcePoint" />
            <mxPoint x="290" y="107.09000000000003" as="targetPoint" />
          </mxGeometry>
        </mxCell>
        <mxCell id="ZAqXfM63JVo944MXXf1k-48" value="" style="endArrow=classic;html=1;rounded=0;exitX=0;exitY=0.5;exitDx=0;exitDy=0;entryX=0.5;entryY=0;entryDx=0;entryDy=0;" edge="1" parent="1" source="ZAqXfM63JVo944MXXf1k-11" target="ZAqXfM63JVo944MXXf1k-32">
          <mxGeometry relative="1" as="geometry">
            <mxPoint x="710" y="105" as="sourcePoint" />
            <mxPoint x="405" y="150" as="targetPoint" />
          </mxGeometry>
        </mxCell>
        <mxCell id="ZAqXfM63JVo944MXXf1k-49" value="boolean" style="edgeLabel;resizable=0;html=1;;align=center;verticalAlign=middle;" connectable="0" vertex="1" parent="ZAqXfM63JVo944MXXf1k-48">
          <mxGeometry relative="1" as="geometry" />
        </mxCell>
        <mxCell id="ZAqXfM63JVo944MXXf1k-51" value="&lt;span style=&quot;font-size: 16px;&quot;&gt;&lt;b&gt;Any Selection&lt;/b&gt;&lt;/span&gt;" style="triangle;whiteSpace=wrap;html=1;" vertex="1" parent="1">
          <mxGeometry x="60" y="300" width="140" height="110" as="geometry" />
        </mxCell>
        <mxCell id="ZAqXfM63JVo944MXXf1k-54" value="" style="endArrow=classic;html=1;rounded=0;exitX=1;exitY=0.5;exitDx=0;exitDy=0;entryX=0;entryY=0.5;entryDx=0;entryDy=0;" edge="1" parent="1" source="ZAqXfM63JVo944MXXf1k-51" target="ZAqXfM63JVo944MXXf1k-53">
          <mxGeometry width="50" height="50" relative="1" as="geometry">
            <mxPoint x="490" y="430" as="sourcePoint" />
            <mxPoint x="540" y="380" as="targetPoint" />
          </mxGeometry>
        </mxCell>
        <mxCell id="ZAqXfM63JVo944MXXf1k-55" value="" style="endArrow=classic;html=1;rounded=0;exitX=1;exitY=0.5;exitDx=0;exitDy=0;entryX=0;entryY=0.25;entryDx=0;entryDy=0;" edge="1" parent="1" source="ZAqXfM63JVo944MXXf1k-53" target="ZAqXfM63JVo944MXXf1k-50">
          <mxGeometry width="50" height="50" relative="1" as="geometry">
            <mxPoint x="490" y="430" as="sourcePoint" />
            <mxPoint x="540" y="380" as="targetPoint" />
            <Array as="points">
              <mxPoint x="650" y="355" />
              <mxPoint x="650" y="695" />
            </Array>
          </mxGeometry>
        </mxCell>
        <mxCell id="ZAqXfM63JVo944MXXf1k-68" style="edgeStyle=orthogonalEdgeStyle;rounded=0;orthogonalLoop=1;jettySize=auto;html=1;exitX=1;exitY=0.5;exitDx=0;exitDy=0;entryX=0;entryY=0.5;entryDx=0;entryDy=0;" edge="1" parent="1" source="ZAqXfM63JVo944MXXf1k-56" target="ZAqXfM63JVo944MXXf1k-67">
          <mxGeometry relative="1" as="geometry" />
        </mxCell>
        <mxCell id="ZAqXfM63JVo944MXXf1k-72" style="edgeStyle=orthogonalEdgeStyle;rounded=0;orthogonalLoop=1;jettySize=auto;html=1;exitX=0;exitY=0.75;exitDx=0;exitDy=0;entryX=0.5;entryY=0.088;entryDx=0;entryDy=0;entryPerimeter=0;" edge="1" parent="1" source="ZAqXfM63JVo944MXXf1k-67" target="ZAqXfM63JVo944MXXf1k-71">
          <mxGeometry relative="1" as="geometry" />
        </mxCell>
        <mxCell id="ZAqXfM63JVo944MXXf1k-81" value="" style="endArrow=classic;html=1;rounded=0;exitX=1;exitY=0.5;exitDx=0;exitDy=0;entryX=0;entryY=0.5;entryDx=0;entryDy=0;" edge="1" parent="1" source="ZAqXfM63JVo944MXXf1k-71" target="ZAqXfM63JVo944MXXf1k-80">
          <mxGeometry width="50" height="50" relative="1" as="geometry">
            <mxPoint x="490" y="640" as="sourcePoint" />
            <mxPoint x="540" y="590" as="targetPoint" />
            <Array as="points">
              <mxPoint x="640" y="540" />
              <mxPoint x="640" y="780" />
            </Array>
          </mxGeometry>
        </mxCell>
        <mxCell id="ZAqXfM63JVo944MXXf1k-92" style="edgeStyle=orthogonalEdgeStyle;rounded=0;orthogonalLoop=1;jettySize=auto;html=1;exitX=1;exitY=0.5;exitDx=0;exitDy=0;entryX=0;entryY=0.25;entryDx=0;entryDy=0;" edge="1" parent="1" source="ZAqXfM63JVo944MXXf1k-84" target="ZAqXfM63JVo944MXXf1k-91">
          <mxGeometry relative="1" as="geometry" />
        </mxCell>
        <mxCell id="ZAqXfM63JVo944MXXf1k-93" style="edgeStyle=orthogonalEdgeStyle;rounded=0;orthogonalLoop=1;jettySize=auto;html=1;exitX=0;exitY=0.75;exitDx=0;exitDy=0;entryX=0.5;entryY=0;entryDx=0;entryDy=0;" edge="1" parent="1" source="ZAqXfM63JVo944MXXf1k-91" target="ZAqXfM63JVo944MXXf1k-86">
          <mxGeometry relative="1" as="geometry">
            <Array as="points">
              <mxPoint x="710" y="890" />
              <mxPoint x="400" y="890" />
            </Array>
          </mxGeometry>
        </mxCell>
        <mxCell id="ZAqXfM63JVo944MXXf1k-96" value="" style="endArrow=classic;html=1;rounded=0;exitX=0;exitY=0.75;exitDx=0;exitDy=0;entryX=0.5;entryY=0;entryDx=0;entryDy=0;" edge="1" parent="1" source="ZAqXfM63JVo944MXXf1k-50" target="ZAqXfM63JVo944MXXf1k-56">
          <mxGeometry width="50" height="50" relative="1" as="geometry">
            <mxPoint x="730" y="540" as="sourcePoint" />
            <mxPoint x="780" y="490" as="targetPoint" />
            <Array as="points">
              <mxPoint x="610" y="725" />
              <mxPoint x="610" y="400" />
              <mxPoint x="410" y="400" />
            </Array>
          </mxGeometry>
        </mxCell>
        <mxCell id="ZAqXfM63JVo944MXXf1k-97" value="Unit Controller" style="swimlane;whiteSpace=wrap;html=1;" vertex="1" parent="1">
          <mxGeometry x="670" y="940" width="320" height="620" as="geometry" />
        </mxCell>
      </root>
    </mxGraphModel>
  </diagram>
</mxfile>
